<?xml version="1.0" encoding="UTF-8" standalone="no"?>
<svg width="26px" height="26px" viewBox="0 0 26 26" version="1.1" xmlns="http://www.w3.org/2000/svg" xmlns:xlink="http://www.w3.org/1999/xlink" xmlns:sketch="http://www.bohemiancoding.com/sketch/ns">
    <!-- Generator: Sketch 3.0.1 (7597) - http://www.bohemiancoding.com/sketch -->
    <title>HomeLnk</title>
    <description>Created with Sketch.</description>
    <defs></defs>
    <g id="Welcome" stroke="none" stroke-width="1" fill="none" fill-rule="evenodd" sketch:type="MSPage">
        <g id="ConstituencyDetail-2" sketch:type="MSArtboardGroup" transform="translate(-11.000000, -10.000000)">
            <g id="HomeLnk" sketch:type="MSLayerGroup" transform="translate(11.000000, 10.000000)">
                <g id="Group" sketch:type="MSShapeGroup">
                    <path d="M0,13 C0,5.82029825 5.82029825,0 13,0 C20.1797017,0 26,5.82029825 26,13 C26,20.1797017 20.1797017,26 13,26 C5.82029825,26 0,20.1797017 0,13 Z" id="Oval-2" fill="#60C3DD"></path>
                    <path d="M3,13 C3,7.4771525 7.4771525,3 13,3 C18.5228475,3 23,7.4771525 23,13 C23,18.5228475 18.5228475,23 13,23 C7.4771525,23 3,18.5228475 3,13 Z" id="Oval-3" fill="#FFFFFF"></path>
                    <path d="M6,13 C6,9.13400675 9.13400675,6 13,6 C16.8659932,6 20,9.13400675 20,13 C20,16.8659932 16.8659932,20 13,20 C9.13400675,20 6,16.8659932 6,13 Z" id="Oval-4" fill="#D7F3CF"></path>
                    <path d="M9,13 C9,10.790861 10.790861,9 13,9 C15.209139,9 17,10.790861 17,13 C17,15.209139 15.209139,17 13,17 C10.790861,17 9,15.209139 9,13 Z" id="Oval-5" fill="#FEC37A"></path>
                </g>
            </g>
        </g>
    </g>
</svg>