<?xml version="1.0" encoding="UTF-8" standalone="no"?>
<svg width="17px" height="17px" viewBox="0 0 17 17" version="1.1" xmlns="http://www.w3.org/2000/svg" xmlns:xlink="http://www.w3.org/1999/xlink" xmlns:sketch="http://www.bohemiancoding.com/sketch/ns">
    <!-- Generator: Sketch 3.0.1 (7597) - http://www.bohemiancoding.com/sketch -->
    <title>Oval 7</title>
    <description>Created with Sketch.</description>
    <defs></defs>
    <g id="Welcome" stroke="none" stroke-width="1" fill="none" fill-rule="evenodd" sketch:type="MSPage">
        <g id="Home" sketch:type="MSArtboardGroup" transform="translate(-280.000000, -210.000000)" fill="#EDDBC5">
            <g id="List" sketch:type="MSLayerGroup" transform="translate(10.000000, 110.000000)">
                <g id="MiddleCell" transform="translate(0.000000, 86.000000)" sketch:type="MSShapeGroup">
                    <path d="M278.5,31 C283.19442,31 287,27.1944204 287,22.5 C287,17.8055796 283.19442,14 278.5,14 C273.80558,14 270,17.8055796 270,22.5 C270,27.1944204 273.80558,31 278.5,31 L278.5,31 Z M276.267987,25.3187095 C275.891721,25.7229892 275.91443,26.3557468 276.318709,26.7320131 C276.722989,27.1082795 277.355747,27.0855702 277.732013,26.6812905 L280.732013,23.4579382 C281.109017,23.052866 281.085375,22.418629 280.679259,22.0427492 L277.679259,19.2661015 C277.273938,18.890957 276.641246,18.9154199 276.266102,19.3207408 C275.890957,19.7260618 275.91542,20.358754 276.320741,20.7338985 L278.677734,22.7896119 L276.267987,25.3187095 Z" id="Oval-7"></path>
                </g>
            </g>
        </g>
    </g>
</svg>